# AST/ASF file generated using VICON BodyLanguage
# -----------------------------------------------
:version 1.10
:name VICON
:units
  mass 1.0
  length 0.45
  angle deg
:documentation
   .ast/.asf automatically generated from VICON data using
   VICON BodyBuilder and BodyLanguage model FoxedUp or BRILLIANT.MOD
:root
   order TX TY TZ RX RY RZ
   axis XYZ
   position 0 0 0  
   orientation 0 0 0 
:bonedata
  begin
     id 1 
     name lhipjoint
     direction 0.711131 -0.61297 0.344326 
     length 2.29162 
     axis 0 0 0  XYZ
  end
  begin
     id 2 
     name lfemur
     direction 0.34202 -0.939693 0  
     length 6.71424  
     axis 0 0 20  XYZ
    dof rx ry rz
    limits (-160.0 20.0)
           (-70.0 70.0)
           (-60.0 70.0)
  end
  begin
     id 3 
     name ltibia
     direction 0.34202 -0.939693 0   
     length 6.7087   
     axis 0 0 20   XYZ
    dof rx
    limits (-10.0 170.0)
  end
  begin
     id 4 
     name lfoot
     direction 0.0230374 -0.0632947 0.997729   
     length 1.56743   
     axis -90 7.62852e-016 20   XYZ
    dof rx rz
    limits (-45.0 90.0)
           (-70.0 20.0)
  end
  begin
     id 5 
     name ltoes
     direction 1.53585e-011 -4.21885e-011 1   
     length 0.802914   
     axis -90 7.62852e-016 20   XYZ
    dof rx
    limits (-90.0 20.0)
  end
  begin
     id 6 
     name rhipjoint
     direction -0.733192 -0.592884 0.333043   
     length 2.36925  
     axis 0 0 0  XYZ 
  end
  begin
     id 7 
     name rfemur
     direction -0.34202 -0.939693 0   
     length 6.67027   
     axis 0 0 -20   XYZ
    dof rx ry rz
    limits (-160.0 20.0)
           (-70.0 70.0)
           (-70.0 60.0)
  end
  begin
     id 8 
     name rtibia
     direction -0.34202 -0.939693 0   
     length 6.6862   
     axis 0 0 -20   XYZ
    dof rx
    limits (-10.0 170.0)
 end
 begin
     id 9 
     name rfoot
     direction -0.0949739 -0.260939 0.960672   
     length 1.67698  
     axis -90 -7.62852e-016 -20   XYZ
    dof rx rz
    limits (-45.0 90.0)
           (-20.0 70.0)
  end
  begin
     id 10 
     name rtoes
     direction -1.5353e-011 -4.21868e-011 1   
     length 0.846298   
     axis -90 -7.62852e-016 -20   XYZ
    dof rx
    limits (-90.0 20.0)
  end
  begin
     id 11 
     name lowerback
     direction -0.0206828 0.999785 -0.00109866   
     length 2.04382   
     axis 0 0 0   XYZ
    dof rx ry rz
    limits (-20.0 45.0)
           (-30.0 30.0)
           (-30.0 30.0)
  end
  begin
     id 12 
     name upperback
     direction -0.0105003 0.999727 -0.0208904   
     length 2.04538   
     axis 0 0 0   XYZ
    dof rx ry rz
    limits (-20.0 45.0)
           (-30.0 30.0)
           (-30.0 30.0)
  end
  begin
     id 13 
     name thorax
     direction -0.000416255 0.999808 -0.0196023   
     length 2.0399   
     axis 0 0 0   XYZ
    dof rx ry rz
    limits (-20.0 45.0)
           (-30.0 30.0)
           (-30.0 30.0)
  end
  begin
     id 14 
     name lowerneck
     direction 0.0627861 0.989205 0.13241   
     length 1.46207   
     axis 0 0 0   XYZ
    dof rx ry rz
    limits (-20.0 45.0)
           (-30.0 30.0)
           (-30.0 30.0)
  end
  begin
     id 15 
     name upperneck
     direction 0.00627179 0.994526 0.104303   
     length 1.41419   
     axis 0 0 0   XYZ
    dof rx ry rz
    limits (-20.0 45.0)
           (-30.0 30.0)
           (-30.0 30.0)
  end
  begin
     id 16
     name head
     direction -0.00443838 0.999688 0.0245968  
     length 1.50718  
     axis 0 0 0   XYZ
    dof rx ry rz
    limits (-20.0 45.0)
           (-30.0 30.0)
           (-30.0 30.0)
  end
  begin
     id 17 
     name lclavicle
     direction 0.758742 0.650995 -0.0227258  
     length 2.86888  
     axis 0 0 0   XYZ
    dof ry rz
    limits (-20.0 10.0)
           (0.0 20.0)
  end
  begin
     id 18 
     name lhumerus
     direction 1 -4.48962e-011 1.06664e-027   
     length 4.65776   
     axis -180 -30 -90   XYZ
    dof rx ry rz
    limits (-60.0 90.0)
           (-90.0 90.0)
           (-90.0 90.0)
  end
  begin
     id 19
     name lradius
     direction 1 -4.48968e-011 1.40404e-026   
     length 3.55539   
     axis -180 -30 -90   XYZ
    dof rx
    limits (-10.0 170.0)
  end
  begin
     id 20
     name lwrist
     direction 1 -4.48976e-011 3.32647e-026   
     length 1.77769   
     axis -2.20186e-014 90 90   XYZ
    dof ry
    limits (-180.0 0.0)
 end
  begin
     id 21 
     name lhand
     direction 1 -4.48982e-011 6.65293e-026   
     length 0.707264   
     axis -4.24514e-014 90 90   XYZ
    dof rx rz
    limits (-90.0 90.0)
           (-45.0 45.0)
  end
  begin
     id 22 
     name lfingers
     direction 1 -4.48966e-011 1.33059e-025   
     length 0.570215   
     axis -8.49028e-014 90 90   XYZ
    dof rx
    limits (0.0 90.0)
  end
  begin
     id 23
     name lthumb
     direction 0.707107 -6.3493e-011 0.707107   
     length 0.818718   
     axis -90 45 2.85299e-015   XYZ
    dof rx rz
    limits (-45.0 45.0)
           (-45.0 45.0)
  end
  begin
     id 24 
     name rclavicle
     direction -0.870343 0.482028 -0.100759   
     length 3.2251  
     axis 0 0 0   XYZ 
    dof ry rz
    limits (-10.0 20.0)
           (-20.0 0.0)
  end
  begin
     id 25 
     name rhumerus
     direction -1 -4.48974e-011 -9.45849e-028  
     length 4.71925   
     axis -180 30 90   XYZ
    dof rx ry rz
    limits (-90.0 60.0)
           (-90.0 90.0)
           (-90.0 90.0)
  end
  begin
     id 26 
     name rradius
     direction -1 -4.48965e-011 1.17607e-026   
     length 3.5699   
     axis -180 30 90   XYZ
    dof rx
    limits (-10.0 170.0)
  end
  begin
     id 27 
     name rwrist
     direction -1 -4.48968e-011 3.32647e-026   
     length 1.78495   
     axis -2.20186e-014 -90 -90   XYZ
    dof ry
    limits (-180.0 0.0)
  end
  begin
     id 28
     name rhand
     direction -1 -4.48995e-011 6.65293e-026   
     length 0.507757   
     axis -4.24514e-014 -90 -90   XYZ
    dof rx rz
    limits (-90.0 90.0)
           (-45.0 45.0)
  end
  begin
     id 29
     name rfingers
     direction -1 -4.48864e-011 1.33059e-025   
     length 0.409367   
     axis -8.49028e-014 -90 -90   XYZ
    dof rx
    limits (0.0 90.0)
  end
  begin
     id 30
     name rthumb
     direction -0.707107 -6.3494e-011 0.707107   
     length 0.587771   
     axis -90 -45 -2.85299e-015   XYZ
    dof rx rz
    limits (-45.0 45.0)
           (-45.0 45.0)
  end
:hierarchy
  begin
    root lhipjoint rhipjoint lowerback
    lhipjoint lfemur
    lfemur ltibia
    ltibia lfoot
    lfoot ltoes
    rhipjoint rfemur
    rfemur rtibia
    rtibia rfoot
    rfoot rtoes
    lowerback upperback
    upperback thorax
    thorax lowerneck lclavicle rclavicle
    lowerneck upperneck
    upperneck head
    lclavicle lhumerus
    lhumerus lradius
    lradius lwrist
    lwrist lhand lthumb
    lhand lfingers
    rclavicle rhumerus
    rhumerus rradius
    rradius rwrist
    rwrist rhand rthumb
    rhand rfingers
  end

#!OML:ASF E:\Steps\Project 1\Capture day 1\Session 2\Subject.ASF
:FULLY-SPECIFIED
:DEGREES
64
root -0.957707 18.0174 21.1937 -152.631 -2.37892 177.144
lowerback -24.0019 -2.03447 -6.53894
upperback 0.50373 -1.10835 0.41473
thorax 14.2667 -1.09395 3.81756
lowerneck 0.461654 -1.57328 -1.06242
upperneck 24.2562 -5.87176 4.0924
head 7.51793 -3.54443 1.03073
rclavicle -8.29926e-015 -8.69683e-016
rhumerus -46.2662 -14.222 -74.6613
rradius 47.2457
rwrist -9.55179
rhand 0.938882 -59.0107
rfingers 7.12502
rthumb 26.4893 -87.1791
lclavicle -8.29926e-015 -8.69683e-016
lhumerus -31.4524 4.9363 80.8284
lradius 20.6259
lwrist -3.24523
lhand -20.8653 -9.46905
lfingers 7.12502
lthumb 5.50444 20.4395
rfemur -26.2438 3.82496 18.8365
rtibia 5.29092
rfoot -15.0662 0.391479
rtoes -11.6448
lfemur -26.9878 -7.72263 -23.373
ltibia 6.77986
lfoot -4.94671 -1.51286
ltoes -36.9109
65
root -0.939902 18.0209 21.1734 -153.081 -2.64496 177.045
lowerback -23.7494 -2.15388 -6.83942
upperback 0.64018 -1.18309 0.438244
thorax 14.3043 -1.14919 3.99294
lowerneck 0.892058 -1.58742 -0.875152
upperneck 23.6619 -5.75972 3.99216
head 7.23393 -3.47529 0.992358
rclavicle 1.47846e-015 -1.26477e-014
rhumerus -46.3773 -14.2606 -74.6881
rradius 47.6759
rwrist -10.8084
rhand 1.51745 -58.9277
rfingers 7.12502
rthumb 27.043 -87.0115
lclavicle 1.47846e-015 -1.26477e-014
lhumerus -31.3784 4.49932 81.0054
lradius 21.0205
lwrist -2.74827
lhand -20.7342 -8.73489
lfingers 7.12502
lthumb 5.63102 21.1703
rfemur -25.3119 4.42994 18.6993
rtibia 4.75386
rfoot -15.0409 -0.518592
rtoes -11.9264
lfemur -26.2763 -7.801 -23.3995
ltibia 6.55616
lfoot -4.92236 -1.67256
ltoes -36.6813
66
root -0.955536 18.0146 21.1873 -152.473 -2.38712 177.25
lowerback -24.2806 -1.96262 -6.41684
upperback 0.438809 -1.03629 0.384696
thorax 14.3348 -1.05586 3.73623
lowerneck 1.12529 -1.63248 -0.965801
upperneck 23.4085 -5.81252 4.14194
head 7.11741 -3.4983 1.06186
rclavicle 2.79541e-016 -3.13086e-015
rhumerus -46.4288 -14.1385 -74.7376
rradius 48.1213
rwrist -11.5046
rhand 3.10791 -59.5763
rfingers 7.12502
rthumb 28.5637 -87.4143
lclavicle 2.79541e-016 -3.13086e-015
lhumerus -31.3106 4.12731 81.1803
lradius 21.4508
lwrist -2.36457
lhand -20.7355 -8.99309
lfingers 7.12502
lthumb 5.62968 20.9121
rfemur -26.4855 3.73758 19.0107
rtibia 5.41517
rfoot -15.0972 0.507394
rtoes -11.7508
lfemur -27.1601 -8.13588 -23.0888
ltibia 6.77984
lfoot -4.99178 -1.03917
ltoes -36.5741
67
root -0.958026 18.0121 21.19 -152.247 -2.44547 177.314
lowerback -24.5024 -1.94725 -6.27829
upperback 0.373611 -1.05222 0.390323
thorax 14.3812 -1.05677 3.65526
lowerneck 1.28419 -1.68822 -1.23723
upperneck 23.1289 -5.91165 4.52839
head 7.01802 -3.53745 1.23435
rclavicle 9.28076e-015 2.85753e-015
rhumerus -46.4288 -13.8556 -74.8688
rradius 48.5296
rwrist -12.3928
rhand 4.41297 -60.5293
rfingers 7.12502
rthumb 29.8099 -88.1508
lclavicle 9.28076e-015 2.85753e-015
lhumerus -31.2432 3.94855 81.3232
lradius 21.8951
lwrist -2.20521
lhand -20.84 -10.5603
lfingers 7.12502
lthumb 5.52883 19.3476
rfemur -26.8443 3.46008 19.1555
rtibia 5.59992
rfoot -15.1833 0.781424
rtoes -11.6114
lfemur -27.5283 -8.34126 -22.9283
ltibia 6.96193
lfoot -5.08612 -0.872787
ltoes -36.3058
68
root -0.948232 18.013 21.1814 -152.5 -2.60639 177.233
lowerback -24.3094 -2.0367 -6.48062
upperback 0.437417 -1.11907 0.422599
thorax 14.362 -1.10052 3.78645
lowerneck 0.748177 -1.6621 -0.724681
upperneck 23.4969 -5.79478 3.92755
head 7.20027 -3.46732 0.943839
rclavicle 9.69075e-016 -2.1419e-014
rhumerus -46.4131 -13.6093 -74.9451
rradius 48.8578
rwrist -13.5264
rhand 5.82029 -61.3441
rfingers 7.12502
rthumb 31.1521 -88.7165
lclavicle 9.69075e-016 -2.1419e-014
lhumerus -31.199 3.7433 81.4882
lradius 22.3433
lwrist -2.02071
lhand -20.9019 -11.5122
lfingers 7.12502
lthumb 5.46902 18.3972
rfemur -26.3717 3.31388 19.1768
rtibia 5.39513
rfoot -15.1829 0.784279
rtoes -11.5567
lfemur -27.1914 -8.48752 -22.9609
ltibia 6.95174
lfoot -5.08081 -0.942598
ltoes -35.6569
69
root -0.926069 18.0174 21.1574 -153.109 -3.00719 177.042
lowerback -23.8994 -2.25232 -6.92721
upperback 0.619361 -1.28652 0.478961
thorax 14.3819 -1.20778 4.05176
lowerneck 0.130047 -1.63913 -0.111528
upperneck 23.8949 -5.66735 3.22831
head 7.40354 -3.3896 0.602095
rclavicle -3.34828e-015 -1.01629e-014
rhumerus -46.4532 -13.362 -75.023
rradius 49.2639
rwrist -14.7529
rhand 7.1038 -60.9908
rfingers 7.12502
rthumb 32.3745 -88.1209
lclavicle -3.34828e-015 -1.01629e-014
lhumerus -31.1082 3.38394 81.7047
lradius 22.7765
lwrist -1.73969
lhand -21.1242 -11.2895
lfingers 7.12502
lthumb 5.25442 18.6254
rfemur -25.1948 3.58638 19.0506
rtibia 4.82824
rfoot -15.1642 0.0711096
rtoes -11.8382
lfemur -26.2938 -8.36679 -23.1589
ltibia 6.75534
lfoot -4.99586 -1.50604
ltoes -35.2295
70
root -0.926105 18.0149 21.1586 -152.941 -2.96961 177.142
lowerback -24.0911 -2.1762 -6.76596
upperback 0.554493 -1.22368 0.449666
thorax 14.3997 -1.16839 3.94595
lowerneck 0.661123 -1.77568 -0.489011
upperneck 23.5019 -5.8902 3.63016
head 7.20586 -3.5093 0.800113
rclavicle 1.32502e-014 2.86623e-014
rhumerus -46.6009 -13.0498 -75.2367
rradius 49.8485
rwrist -16.1853
rhand 7.35016 -58.4364
rfingers 7.12502
rthumb 32.6089 -85.5183
lclavicle 1.32502e-014 2.86623e-014
lhumerus -30.9772 2.94696 81.9217
lradius 23.2264
lwrist -1.49782
lhand -21.4974 -11.1302
lfingers 7.12502
lthumb 4.89413 18.7933
rfemur -25.546 3.57279 19.1684
rtibia 5.10423
rfoot -15.217 0.168262
rtoes -11.7835
lfemur -26.533 -8.40072 -23.0052
ltibia 6.82039
lfoot -5.01382 -1.3163
ltoes -35.8405
71
root -0.929466 18.0112 21.1635 -152.737 -2.87327 177.219
lowerback -24.3104 -2.06528 -6.5573
upperback 0.497947 -1.1214 0.378739
thorax 14.4364 -1.10667 3.77881
lowerneck 0.131058 -1.72066 -0.319761
upperneck 23.8561 -5.85021 3.60444
head 7.41078 -3.46529 0.748363
rclavicle -2.98332e-015 -1.54679e-014
rhumerus -46.6852 -12.8346 -75.4208
rradius 50.407
rwrist -16.8227
rhand 10.376 -61.67
rfingers 7.12502
rthumb 35.4829 -88.1119
lclavicle -2.98332e-015 -1.54679e-014
lhumerus -30.7611 2.64791 82.0439
lradius 23.5967
lwrist -1.3686
lhand -21.6468 -11.4664
lfingers 7.12502
lthumb 4.74981 18.4604
rfemur -25.9677 3.32936 19.2976
rtibia 5.37697
rfoot -15.2365 0.577944
rtoes -11.4122
lfemur -26.8364 -8.46159 -22.8987
ltibia 6.91298
lfoot -5.03019 -1.08956
ltoes -36.3765
72
root -0.928621 18.0088 21.1616 -152.649 -2.88165 177.254
lowerback -24.4588 -2.01387 -6.46474
upperback 0.474745 -1.07091 0.353362
thorax 14.4838 -1.07852 3.71327
lowerneck -0.0983451 -1.73802 -0.435085
upperneck 24.1026 -5.93373 3.7143
head 7.54167 -3.50548 0.78892
rclavicle -3.80486e-015 -2.0304e-014
rhumerus -46.7415 -12.4016 -75.7157
rradius 50.7194
rwrist -18.3296
rhand 11.2616 -64.1322
rfingers 7.12502
rthumb 36.322 90.3689
lclavicle -3.80486e-015 -2.0304e-014
lhumerus -30.5406 2.44497 82.1667
lradius 23.9427
lwrist -1.18707
lhand -21.7166 -11.7361
lfingers 7.12502
lthumb 4.68238 18.1922
rfemur -26.1489 2.79921 19.5021
rtibia 5.51497
rfoot -15.2224 1.16448
rtoes -11.239
lfemur -26.955 -8.41115 -22.8737
ltibia 6.96741
lfoot -5.05592 -1.14334
ltoes -36.2504
73
root -0.924281 18.0106 21.1586 -152.647 -2.97608 177.268
lowerback -24.4734 -2.01373 -6.47141
upperback 0.437151 -1.0742 0.366243
thorax 14.4478 -1.08059 3.73072
lowerneck -0.243471 -1.78411 -0.524147
upperneck 24.2816 -6.02435 3.71541
head 7.63189 -3.55629 0.791959
rclavicle 2.74882e-016 2.34814e-015
rhumerus -46.8821 -11.9179 -75.9814
rradius 51.2599
rwrist -19.9009
rhand 12.6627 -74.4341
rfingers 7.12502
rthumb 37.6472 100.328
lclavicle 2.74882e-016 2.34814e-015
lhumerus -30.4243 2.21365 82.3297
lradius 24.4382
lwrist -0.887819
lhand -21.6998 -11.3749
lfingers 7.12502
lthumb 4.6986 18.553
rfemur -26.127 2.67086 19.5884
rtibia 5.50448
rfoot -15.2517 1.20067
rtoes -11.4093
lfemur -26.9878 -8.34002 -22.8482
ltibia 7.01677
lfoot -5.08457 -1.28304
ltoes -36.0985
74
root -0.919268 18.0108 21.155 -152.691 -3.04518 177.255
lowerback -24.4711 -2.03472 -6.53701
upperback 0.426107 -1.08564 0.374135
thorax 14.4364 -1.09085 3.77343
lowerneck -0.258213 -1.80698 -0.591042
upperneck 24.2515 -6.03945 3.71862
head 7.62638 -3.56591 0.803655
rclavicle -1.17889e-014 -9.46091e-015
rhumerus -47.0335 -11.4513 -76.225
rradius 52.0323
rwrist -21.1322
rhand -7.49299 -60.822
rfingers 7.12502
rthumb 18.3966 270.028
lclavicle -1.17889e-014 -9.46091e-015
lhumerus -30.335 2.02957 82.4726
lradius 25.0041
lwrist -0.610157
lhand -21.4633 -11.1189
lfingers 7.12502
lthumb 4.92703 18.8039
rfemur -26.0272 2.76667 19.5717
rtibia 5.45126
rfoot -15.2914 0.970556
rtoes -11.6029
lfemur -26.9562 -8.26841 -22.8696
ltibia 7.03371
lfoot -5.09112 -1.38433
ltoes -36.5804
75
root -0.913139 18.0083 21.1481 -152.739 -3.11204 177.229
lowerback -24.5496 -2.06933 -6.62398
upperback 0.461254 -1.09869 0.385846
thorax 14.5273 -1.10667 3.83161
lowerneck -0.307105 -1.77816 -0.697575
upperneck 24.193 -5.98195 3.79707
head 7.61854 -3.53471 0.851496
rclavicle 3.56881e-015 -1.18587e-014
rhumerus -47.1616 -10.91 -76.5148
rradius 52.7274
rwrist -22.2103
rhand 12.7854 -64.8278
rfingers 7.12502
rthumb 37.7632 90.6911
lclavicle 3.56881e-015 -1.18587e-014
lhumerus -30.2473 1.72209 82.6829
lradius 25.6112
lwrist -0.372313
lhand -21.4685 -11.4415
lfingers 7.12502
lthumb 4.92202 18.4813
rfemur -25.9237 2.87082 19.5435
rtibia 5.43203
rfoot -15.3232 0.727554
rtoes -11.7684
lfemur -26.8962 -8.25723 -22.8888
ltibia 7.06174
lfoot -5.14833 -1.42816
ltoes -37.1981
76
root -0.90738 18.0073 21.1425 -152.821 -3.19205 177.194
lowerback -24.5655 -2.09883 -6.69055
upperback 0.505501 -1.1109 0.378729
thorax 14.5926 -1.11842 3.857
lowerneck -0.365468 -1.76723 -0.743492
upperneck 24.092 -5.93637 3.85056
head 7.59624 -3.50338 0.880669
rclavicle -3.36692e-015 1.03679e-014
rhumerus -47.2916 -10.417 -76.8125
rradius 53.355
rwrist -22.9045
rhand 12.851 -64.7416
rfingers 7.12502
rthumb 37.8251 90.5882
lclavicle -3.36692e-015 1.03679e-014
lhumerus -30.14 1.32388 82.9047
lradius 26.2202
lwrist -0.182572
lhand -21.6925 -11.8187
lfingers 7.12502
lthumb 4.7057 18.1091
rfemur -25.7731 2.99653 19.4967
rtibia 5.39481
rfoot -15.3299 0.508758
rtoes -11.5374
lfemur -26.8043 -8.33298 -22.879
ltibia 7.09052
lfoot -5.24276 -1.42261
ltoes -37.088
77
root -0.903607 18.0088 21.1398 -152.912 -3.2911 177.187
lowerback -24.5311 -2.11755 -6.70858
upperback 0.545628 -1.12641 0.372212
thorax 14.6237 -1.12658 3.8544
lowerneck -0.326145 -1.79898 -0.730398
upperneck 23.9343 -5.94432 3.86046
head 7.53672 -3.49912 0.884837
rclavicle 6.72335e-015 1.1368e-015
rhumerus -47.4092 -10.1118 -77.0296
rradius 53.8435
rwrist -23.0774
rhand 12.2524 -64.6815
rfingers 7.12502
rthumb 37.2594 90.6785
lclavicle 6.72335e-015 1.1368e-015
lhumerus -29.9555 1.14921 83.0105
lradius 26.7265
lwrist -0.0261672
lhand -21.6815 -12.0482
lfingers 7.12502
lthumb 4.71636 17.8793
rfemur -25.6211 3.11257 19.4797
rtibia 5.36015
rfoot -15.3397 0.316303
rtoes -11.4432
lfemur -26.6968 -8.35435 -22.8583
ltibia 7.08526
lfoot -5.23306 -1.49096
ltoes -36.508
78
root -0.900777 18.0103 21.1368 -152.949 -3.38658 177.185
lowerback -24.5621 -2.11375 -6.71038
upperback 0.571743 -1.11335 0.355758
thorax 14.6708 -1.12136 3.84084
lowerneck -0.272445 -1.85027 -0.696622
upperneck 23.8503 -6.00132 3.85779
head 7.50002 -3.52191 0.87708
rclavicle -7.50102e-015 6.06914e-015
rhumerus -47.5603 -9.98064 -77.186
rradius 54.1694
rwrist -22.7241
rhand 11.9218 -63.4349
rfingers 7.12502
rthumb 36.9467 270.487
lclavicle -7.50102e-015 6.06914e-015
lhumerus -29.7406 1.02283 83.0901
lradius 27.2189
lwrist 0.117374
lhand -21.5711 -12.0539
lfingers 7.12502
lthumb 4.8229 17.8712
rfemur -25.5431 3.18881 19.479
rtibia 5.35026
rfoot -15.3943 0.150447
rtoes -12.117
lfemur -26.6566 -8.3857 -22.8353
ltibia 7.11415
lfoot -5.11007 -1.60243
ltoes -36.3708
